<?xml version="1.0" encoding="utf-8"?>
<!-- Generator: Adobe Illustrator 23.0.3, SVG Export Plug-In . SVG Version: 6.00 Build 0)  -->
<svg version="1.1" id="Layer_1" xmlns="http://www.w3.org/2000/svg" xmlns:xlink="http://www.w3.org/1999/xlink" x="0px" y="0px"
	 viewBox="0 0 333.4 333.4" style="enable-background:new 0 0 333.4 333.4;" xml:space="preserve">
<style type="text/css">
	.st0{fill:none;stroke:#486EB4;stroke-width:15;stroke-miterlimit:10;}
	.st1{fill:none;stroke:#B54185;stroke-width:15;stroke-miterlimit:10;}
	.st2{fill:none;stroke:#1AAFDE;stroke-width:15;stroke-miterlimit:10;}
	.st3{fill:none;stroke:#157CBA;stroke-width:15;stroke-miterlimit:10;}
	.st4{fill:none;stroke:#2DAF4B;stroke-width:15;stroke-miterlimit:10;}
	.st5{fill:none;stroke:#EF4D44;stroke-width:15;stroke-miterlimit:10;}
	.st6{fill:none;stroke:#EB4943;stroke-width:15;stroke-miterlimit:10;}
	.st7{fill:none;stroke:#20B6E9;stroke-width:15;stroke-miterlimit:10;}
	.st8{fill:none;stroke:#F4E028;stroke-width:15;stroke-miterlimit:10;}
	.st9{fill:none;stroke:#33445A;stroke-width:15;stroke-miterlimit:10;}
	.st10{fill:none;stroke:#2790CF;stroke-width:15;stroke-miterlimit:10;}
	.st11{fill:none;stroke:#39AAE0;stroke-width:15;stroke-miterlimit:10;}
	.st12{fill:#FFFFFF;}
	.st13{fill:#486EB4;}
	.st14{fill:#B54185;}
	.st15{fill:#2DAF4B;}
	.st16{fill:#EB4943;}
	.st17{fill:#157CBA;}
	.st18{fill:#1AAFDE;}
	.st19{fill:#EF4D44;}
	.st20{fill:#33445A;}
	.st21{fill:#20B6E9;}
	.st22{fill:#F4E028;}
	.st23{fill:#2790CF;}
	.st24{fill:#39AAE0;}
	.st25{fill:none;stroke:url(#SVGID_1_);stroke-width:15;stroke-miterlimit:10;}
	.st26{fill:none;stroke:url(#SVGID_2_);stroke-width:15;stroke-miterlimit:10;}
	.st27{fill:none;stroke:url(#SVGID_3_);stroke-width:15;stroke-miterlimit:10;}
	.st28{fill:none;stroke:url(#SVGID_4_);stroke-width:15;stroke-miterlimit:10;}
	.st29{fill:none;stroke:url(#SVGID_5_);stroke-width:15;stroke-miterlimit:10;}
	.st30{fill:none;stroke:url(#SVGID_6_);stroke-width:15;stroke-miterlimit:10;}
	.st31{fill:none;stroke:url(#SVGID_7_);stroke-width:15;stroke-miterlimit:10;}
	.st32{fill:none;stroke:url(#SVGID_8_);stroke-width:15;stroke-miterlimit:10;}
	.st33{fill:none;stroke:url(#SVGID_9_);stroke-width:15;stroke-miterlimit:10;}
	.st34{fill:none;stroke:url(#SVGID_10_);stroke-width:15;stroke-miterlimit:10;}
	.st35{fill:none;stroke:url(#SVGID_11_);stroke-width:15;stroke-miterlimit:10;}
	.st36{fill:none;stroke:url(#SVGID_12_);stroke-width:15;stroke-miterlimit:10;}
	.st37{fill:url(#SVGID_13_);}
	.st38{fill:url(#SVGID_14_);}
	.st39{fill:url(#XMLID_14_);}
	.st40{fill:url(#SVGID_15_);}
	.st41{fill:url(#SVGID_16_);}
	.st42{fill:url(#SVGID_17_);}
	.st43{fill:url(#SVGID_18_);}
	.st44{fill:url(#SVGID_19_);}
	.st45{fill:url(#SVGID_20_);}
	.st46{fill:url(#SVGID_21_);}
	.st47{fill:url(#SVGID_22_);}
	.st48{fill:url(#SVGID_23_);}
	.st49{fill:url(#SVGID_24_);}
	.st50{fill:url(#SVGID_25_);}
	.st51{fill:url(#SVGID_26_);}
	.st52{fill:url(#SVGID_27_);}
	.st53{fill:url(#SVGID_28_);}
	.st54{fill:url(#SVGID_29_);}
	.st55{fill:url(#SVGID_30_);}
	.st56{fill:url(#SVGID_31_);}
	.st57{fill:url(#SVGID_32_);}
	.st58{fill:url(#SVGID_33_);}
	.st59{fill:url(#SVGID_34_);}
	.st60{fill:url(#SVGID_35_);}
</style>
<path class="st23" d="M15.1,86.9c0,0,2.7-70.7,80.4-68.4s208.6-0.8,221.7,76.6C330.4,172.5,233,318,154.3,317.7
	C86.5,317.5,10.9,191.8,15.1,86.9z"/>
<g>
	<path class="st12" d="M209.1,253.1c-9,0-18-2-26-5.8c-5.7,0.9-10.7,1.4-15.3,1.4c-54.4,0-98.7-43.7-98.7-97.5
		c0-5.2,0.5-10.7,1.6-16.6c-4.5-8.5-6.8-17.9-6.8-27.5c0-33,27.1-59.8,60.5-59.8c10.4,0,20.5,2.6,29.5,7.6c4.1-0.5,8.6-0.8,13.9-0.8
		c26.3,0,51,10.1,69.5,28.3c18.5,18.3,28.8,42.7,28.8,68.7c0,6.9-0.5,12.7-1.5,18.1c3.4,7.5,5.1,15.6,5.1,24
		C269.6,226.3,242.4,253.1,209.1,253.1z M185.6,230.5l2.5,1.3c6.4,3.4,13.7,5.2,21,5.2c24.5,0,44.4-19.6,44.4-43.7
		c0-6.8-1.5-13.3-4.6-19.3l-1.3-2.6l0.6-2.8c1.1-5,1.6-10.5,1.6-17.4c0-44.6-36.9-81-82.2-81c-5.7,0-10.2,0.3-14.1,1l-3,0.5
		l-2.6-1.6c-7.1-4.4-15.3-6.7-23.7-6.7c-24.5,0-44.4,19.6-44.4,43.7c0,7.8,2.1,15.4,6.1,22.1l1.6,2.7l-0.6,3.1
		c-1.2,6-1.8,11.3-1.8,16.3c0,44.9,37.1,81.4,82.6,81.4c4.4,0,9.2-0.5,15.1-1.6L185.6,230.5z M218.5,172.3c0-5.8-1.1-10.8-3.4-14.8
		c-2.3-4-5.5-7.4-9.5-10c-4-2.6-8.8-4.8-14.4-6.6c-5.5-1.8-11.8-3.4-18.6-4.8c-5.4-1.2-9.3-2.2-11.7-2.8c-2.3-0.6-4.6-1.5-6.8-2.6
		c-2.1-1.1-3.8-2.3-5-3.8c-1.1-1.4-2-3-2-4.9c0-3.1,2.1-5.7,5.6-8c3.6-2.4,8.6-3.4,14.6-3.4c6.5,0,11.3,0.9,14.1,3
		c2.9,2.2,5.5,5.3,7.6,9.3c1.8,3.1,3.5,5.3,5,6.7c1.7,1.5,4.1,2.2,7.3,2.2c3.4,0,6.4-1.1,8.7-3.5c2.3-2.4,3.9-5.1,3.9-8.1
		c0-3.1-1.3-6.3-3.1-9.6c-1.7-3.2-4.5-6.3-8.2-9.2c-3.7-2.9-8.4-5.2-13.9-6.9c-5.5-1.7-12.2-2.6-19.7-2.6c-9.4,0-17.7,1.3-24.7,3.9
		c-7.1,2.6-12.6,6.4-16.4,11.3c-3.8,4.9-6,10.6-6,17c0,6.6,2.1,12.3,5.8,16.8c3.6,4.4,8.4,8,14.5,10.5c5.9,2.5,13.3,4.7,22.1,6.6
		c6.4,1.4,11.6,2.6,15.5,3.8c3.7,1.1,6.7,2.8,9,4.9c2.2,2,3.4,4.6,3.4,7.9c0,4.2-2.2,7.6-6.4,10.5c-4.3,2.9-10,4.1-17,4.1
		c-5.1,0-9.2-0.4-12.3-1.8c-3-1.4-5.4-3.3-7.1-5.4c-1.7-2.3-3.4-5.1-4.9-8.5c-1.3-3.1-3-5.5-4.9-7.2c-2-1.7-4.5-2.7-7.4-2.7
		c-3.5,0-6.5,1.3-8.8,3.4c-2.3,2.2-3.5,4.8-3.5,7.9c0,4.9,1.8,10,5.4,15.1c3.5,5.1,8.2,9.2,13.9,12.3c7.9,4.2,18.1,6.3,30.2,6.3
		c10.1,0,19-1.6,26.3-4.6c7.5-3.1,13.2-7.4,17.1-12.9C216.5,185.5,218.5,179.2,218.5,172.3z"/>
</g>
</svg>
